<svg width="44" height="44" viewBox="0 0 44 44" fill="none" xmlns="http://www.w3.org/2000/svg">
<g clip-path="url(#clip0_27_97)">
<path d="M21.9999 1.1001C9.86914 1.1001 -6.29443e-05 9.98223 -6.29443e-05 20.9001C-6.29443e-05 24.7171 1.20774 28.4138 3.49647 31.6097C3.06307 36.4035 1.90147 39.9624 0.214804 41.6483C-0.0081296 41.8712 -0.0638629 42.2122 0.076937 42.4938C0.202337 42.7454 0.45827 42.9001 0.73327 42.9001C0.767004 42.9001 0.80147 42.8979 0.835937 42.8928C1.13294 42.851 8.03214 41.8573 13.0217 38.9782C15.8561 40.1215 18.8745 40.7001 21.9999 40.7001C34.1307 40.7001 43.9999 31.818 43.9999 20.9001C43.9999 9.98223 34.1307 1.1001 21.9999 1.1001Z" 
fill="#FFE68F"/>
</g>
<defs>
<clipPath id="clip0_27_97">
<rect width="44" height="44" fill="white"/>
</clipPath>
</defs>
</svg>
