<svg width="50" height="50" viewBox="0 0 50 50" fill="none" xmlns="http://www.w3.org/2000/svg">
<path d="M2.23806 31.7708C2.22978 32.5052 2.41548 33.2414 2.79517 33.8996L7.87521 42.7068C8.61929 43.9968 9.99528 44.7916 11.4845 44.7916H38.5155C40.0048 44.7916 41.3807 43.9968 42.1248 42.7068L47.2049 33.8996C47.5846 33.2413 47.7703 32.5052 47.762 31.7708H2.23806Z" fill="#FFE68F"/>
<path d="M40.6163 44.2234L17.8291 4.7548C18.4638 4.37628 19.1986 4.16675 19.9633 4.16675H30.0368C31.5254 4.16675 32.901 4.96091 33.6453 6.25008L47.204 29.7346C47.948 31.0232 47.9484 32.6108 47.2049 33.8998L42.1248 42.7069C41.7561 43.3462 41.2322 43.8638 40.6163 44.2234Z" fill="#FFE68F"/>
<path d="M32.171 4.7548C31.5362 4.37628 30.8014 4.16675 30.0368 4.16675H19.9632C18.4746 4.16675 17.0991 4.96091 16.3548 6.25008L2.79602 29.7346C2.05202 31.0232 2.0517 32.6108 2.79517 33.8998L7.87521 42.7069C8.24392 43.3462 8.76781 43.8638 9.38375 44.2234L32.171 4.7548Z" fill="#FFE68F"/>
<path d="M47.7619 31.7708C47.7702 32.5052 47.5845 33.2413 47.2048 33.8996L42.1248 42.7068C41.756 43.346 41.2322 43.8637 40.6162 44.2233L33.4268 31.7708H47.7619Z" fill="#FFE68F"/>
<path d="M32.171 4.75481C31.5362 4.37628 30.8014 4.16675 30.0368 4.16675H19.9633C19.1986 4.16675 18.4638 4.37628 17.8291 4.7548L25 17.1752L32.171 4.75481Z" fill="#FFE68F"/>
<path d="M2.23806 31.7708C2.22978 32.5052 2.41548 33.2414 2.79517 33.8996L7.87521 42.7068C8.24392 43.346 8.76781 43.8637 9.38375 44.2233L16.5732 31.7708H2.23806Z" fill="#FFE68F"/>
</svg>
